# xmcd
# Track frame offsets:
# 150
# 14007
# 25535
# 42152
# 51037
# 63530
# 75502
# 87137
# 100585
# 111065
# 125760
# 138250
# 150355
# 162542
# 172292
# 183617
# 193355
# 204897
# 218197
# 230465
# 244260
# 256330
#
# Disc length: 3529 seconds
# Revision: 0
# Processed by: cddbd v1.4PL0 Copyright (c) Steve Scherf et al.
# Submitted via: VisiTrax 2.9.5.180 - For more info visit www.synapsa.com
#
DISCID=2f0dc716
DTITLE=Glen Campbell - The Hit Albums (Wichita Lineman and Galverston)
DYEAR=1995
DGENRE=
TTITLE0=Wichica Lineman
TTITLE1=(Sittin`On )The Dock Of The Bay
TTITLE2=If You Go Away
TTITLE3=Ann
TTITLE4=Words
TTITLE5=Fate Of Man
TTITLE6=Dreams Of Everyday Housewife
TTITLE7=The Straight Life
TTITLE8=Reason To Belive
TTITLE9=You Better Sit Down Kids
TTITLE10=That`s Not Home
TTITLE11=Galverston
TTITLE12=Take My Hand For A While
TTITLE13=If This Is Love
TTITLE14=Today
TTITLE15=Got To Have Tenderness
TTITLE16=Friends
TTITLE17=Where s The Playground Susie
TTITLE18=Time
TTITLE19=Until It`s Time For You To Go
TTITLE20=Oh What A Woman
TTITLE21=Every Time I Itch I Wind Up Scratchin`You
EXTD=Disky Records\nHolland
EXTT0=
EXTT1=
EXTT2=
EXTT3=
EXTT4=
EXTT5=
EXTT6=
EXTT7=
EXTT8=
EXTT9=
EXTT10=
EXTT11=
EXTT12=
EXTT13=
EXTT14=
EXTT15=
EXTT16=
EXTT17=
EXTT18=
EXTT19=
EXTT20=
EXTT21=
PLAYORDER=
